<?xml version="1.0" encoding="UTF-8" standalone="no"?>
<!-- Generator: Adobe Illustrator 15.0.2, SVG Export Plug-In . SVG Version: 6.00 Build 0)  -->

<svg
   xmlns:dc="http://purl.org/dc/elements/1.1/"
   xmlns:cc="http://creativecommons.org/ns#"
   xmlns:rdf="http://www.w3.org/1999/02/22-rdf-syntax-ns#"
   xmlns:svg="http://www.w3.org/2000/svg"
   xmlns="http://www.w3.org/2000/svg"
   xmlns:sodipodi="http://sodipodi.sourceforge.net/DTD/sodipodi-0.dtd"
   xmlns:inkscape="http://www.inkscape.org/namespaces/inkscape"
   version="1.1"
   id="Layer_1"
   x="0px"
   y="0px"
   width="1870.152"
   height="703.50311"
   viewBox="0 0 1870.152 703.50312"
   enable-background="new 0 0 1671.752 702.167"
   xml:space="preserve"
   inkscape:version="0.48.2 r9819"
   sodipodi:docname="Mizrahi_Tefahot_logo.svg"><metadata
   id="metadata13"><rdf:RDF><cc:Work
       rdf:about=""><dc:format>image/svg+xml</dc:format><dc:type
         rdf:resource="http://purl.org/dc/dcmitype/StillImage" /></cc:Work></rdf:RDF></metadata><defs
   id="defs11" /><sodipodi:namedview
   pagecolor="#ffffff"
   bordercolor="#666666"
   borderopacity="1"
   objecttolerance="10"
   gridtolerance="10"
   guidetolerance="10"
   inkscape:pageopacity="0"
   inkscape:pageshadow="2"
   inkscape:window-width="1280"
   inkscape:window-height="962"
   id="namedview9"
   showgrid="false"
   fit-margin-top="0"
   fit-margin-left="0"
   fit-margin-right="0"
   fit-margin-bottom="0"
   inkscape:zoom="0.34607152"
   inkscape:cx="1013.5332"
   inkscape:cy="902.13281"
   inkscape:window-x="-8"
   inkscape:window-y="-8"
   inkscape:window-maximized="1"
   inkscape:current-layer="Layer_1" />

<g
   id="g3861"
   transform="matrix(1.4284841,0,0,1.4284841,-39.064383,1157.3863)"><path
     inkscape:connector-curvature="0"
     id="path4275"
     style="fill:#4d555a;fill-opacity:1;fill-rule:nonzero;stroke:none"
     d="m 961.61681,-591.14876 c 4.60013,-32.04494 -12.33846,-68.86542 -40.29007,-92.93811 -42.02487,-36.21623 -117.55657,-52.726 -190.59329,-8.12819 -3.76197,2.30007 -7.38749,2.63143 -9.16127,1.57886 -2.80685,-1.65682 -2.37803,-5.76965 -0.21441,-8.44006 15.51567,-19.25815 79.00129,-104.63334 169.65883,-104.63334 60.23044,0 116.9328,42.2003 133.1697,102.70363 4.2493,15.84704 6.2375,29.10163 6.3349,40.48499 0,0 -8.557,38.63325 -53.29125,61.96524 -4.87301,2.55346 -10.09688,5.06793 -15.61314,7.40698" /><path
     inkscape:connector-curvature="0"
     id="path4277"
     style="fill:#f5821f;fill-opacity:1;fill-rule:nonzero;stroke:none"
     d="m 639.66658,-756.88969 c 21.40227,19.33612 136.87319,121.08464 150.81001,133.36463 75.14186,66.27298 143.92932,47.3267 186.75336,24.96932 44.73425,-23.33199 53.31075,-61.96524 53.29125,-61.96524 0.1949,12.82577 2.0857,91.06687 -75.10286,141.99961 -50.5234,33.3509 -138.35459,59.45076 -236.26317,-25.61256 -19.53104,-16.97758 -144.06577,-123.81352 -157.98309,-136.09351 -75.16136,-66.27298 -148.47097,-43.62322 -191.66536,-6.00356 -12.68933,11.052 -28.98468,30.09573 -35.65096,47.05382 0.44831,-7.87479 -1.11105,-51.96581 44.16899,-105.60794 21.69465,-25.69053 63.91444,-65.43482 135.06043,-65.43482 41.30366,0 78.45552,9.8045 126.5814,53.33025" /><path
     inkscape:connector-curvature="0"
     id="path4279"
     style="fill:#4d555a;fill-opacity:1;fill-rule:nonzero;stroke:none"
     d="m 339.21607,-584.87232 c -5.92558,-20.6031 -6.6273,-38.98411 -5.32133,-54.42181 6.70527,-16.9191 22.94215,-35.92386 35.61198,-46.93687 9.66806,-8.44005 20.8565,-16.11992 33.23395,-22.22094 -7.38749,33.50684 9.86298,70.30784 39.33496,95.70598 42.04436,36.21624 114.84718,52.80398 187.8839,8.20616 3.76197,-2.30006 7.58241,-2.90432 9.16127,-1.57886 2.57295,2.16362 2.47549,5.49676 0.2339,8.44006 -14.98939,19.68698 -77.14954,105.17912 -167.82657,105.17912 -60.21096,0 -114.98362,-32.16189 -132.31206,-92.37284" /><path
     inkscape:connector-curvature="0"
     id="path4281"
     style="fill:#4d555a;fill-opacity:1;fill-rule:nonzero;stroke:none"
     d="m 258.16811,-434.12078 c -1.55936,14.77497 -11.11047,104.32147 -11.89015,108.74616 -0.85765,4.81454 -5.04844,7.03663 -9.33669,7.03663 l -26.76259,0 12.29948,-107.14781 -16.35383,0 c -4.1713,0 -7.52393,-3.62552 -6.95866,-8.06971 0.54578,-4.73657 5.28235,-8.90787 10.01891,-8.90787 l 39.60786,0 c 7.67987,0 9.88247,3.31365 9.37567,8.3426" /><path
     inkscape:connector-curvature="0"
     id="path4283"
     style="fill:#4d555a;fill-opacity:1;fill-rule:nonzero;stroke:none"
     d="m 553.31678,-380.40068 c 4.1713,-33.66278 -20.87599,-62.0627 -60.11349,-62.0627 -2.78736,0 -30.8949,0 -35.90436,0 -9.74603,0 -19.21917,2.51447 -20.6031,12.53339 l -5.51625,47.5801 c 0,0.29238 0.29238,2.78736 1.11104,3.89841 1.67632,2.24159 3.35264,3.06025 5.84762,3.06025 l 33.13649,0 c 4.44419,0 8.90787,-3.89841 9.45365,-8.34259 0.56526,-5.57473 -1.67632,-7.50445 -4.73657,-7.50445 l -9.45365,0 3.54755,-34.52042 19.49206,0 c 20.03783,0 30.8949,22.5523 28.10754,46.19616 -3.06025,23.66336 -19.47256,45.08512 -38.39935,45.08512 l -46.48854,0 c -4.46368,0 -8.90787,4.19079 -9.74603,8.63498 -0.27289,4.19079 2.51448,7.50444 6.68577,7.50444 l 47.30722,0 c 38.14594,0 72.37399,-28.10754 76.2724,-62.06269" /><path
     inkscape:connector-curvature="0"
     id="path4285"
     style="fill:#4d555a;fill-opacity:1;fill-rule:nonzero;stroke:none"
     d="m 412.19432,-403.20639 c -2.37803,21.8506 -6.10102,58.92448 -8.44006,77.2665 -0.56527,5.53575 -3.15771,7.6019 -7.73835,7.6019 l -28.53636,0 c 1.65682,-13.35205 5.78914,-54.53876 8.5765,-74.3037 3.33314,-24.7744 -8.3426,-32.84411 -28.39992,-32.84411 l -21.51923,0 -11.87066,107.14781 -34.98823,0 12.43593,-107.14781 -10.01892,0 c -4.1713,0 -7.23155,-4.1713 -6.66628,-8.3426 0.54578,-4.73657 5.00946,-8.63498 9.45365,-8.63498 l 82.3929,0 c 41.75198,0 47.8335,16.4318 45.31903,39.25699" /><path
     inkscape:connector-curvature="0"
     id="path4287"
     style="fill:#4d555a;fill-opacity:1;fill-rule:nonzero;stroke:none"
     d="m 187.87977,-403.20639 c -2.456,22.41587 -6.33492,60.65927 -8.53752,78.41653 -0.60425,4.87302 -3.80095,6.45187 -7.05612,6.45187 -3.66451,0 -28.77027,0 -28.77027,0 1.67631,-13.35205 5.51625,-54.53876 8.30361,-74.3037 3.89841,-26.9965 -11.42234,-32.84411 -28.38043,-32.84411 l -21.8116,0 -11.324886,104.37994 c -0.272889,2.76787 -1.111048,2.76787 -1.949206,2.76787 l -53.992987,0 c -3.89841,0 -7.50444,-4.1713 -6.958663,-8.61548 0.56527,-4.1908 4.736569,-7.79683 9.746027,-7.79683 l 19.531037,0 10.447741,-90.7355 -9.668059,0 c -4.171299,0 -7.231551,-4.1713 -6.666282,-8.3426 0.545778,-4.73657 5.009458,-8.63498 9.726535,-8.63498 l 82.120023,0 c 42.02486,0 48.00892,16.4318 45.24105,39.25699" /><path
     inkscape:connector-curvature="0"
     id="path4289"
     style="fill:#4d555a;fill-opacity:1;fill-rule:nonzero;stroke:none"
     d="m 659.86034,-368.19866 6.19848,-57.28714 -16.13942,0 c -4.1713,0 -7.58241,-3.62552 -7.1341,-8.06971 0.44832,-4.73657 5.08743,-8.90787 9.824,-8.90787 l 40.44601,0 c 7.32901,0 9.0638,3.76197 8.75193,8.3426 -0.4873,7.21206 -5.94508,57.85241 -5.94508,57.85241 -2.88482,32.57122 -21.34379,62.17965 -75.23932,58.16429 -31.96697,-2.35854 -54.85064,-25.88545 -52.2387,-58.16429 l 2.31955,-21.01243 4.61962,-45.18258 c 0,0 7.32901,0.0195 12.70882,0 14.19021,0 24.38456,7.50444 23.0396,21.98704 l -5.76964,51.43952 c -1.57886,17.26996 11.28589,31.73307 28.80925,31.73307 15.86653,0 24.15065,-15.32076 25.749,-30.89491" /><path
     inkscape:connector-curvature="0"
     id="path4291"
     style="fill:#4d555a;fill-opacity:1;fill-rule:nonzero;stroke:none"
     d="m 1336.0007,-378.17859 c 4.1713,-33.95516 -15.8666,-64.28479 -70.6977,-64.28479 l -67.9103,0 c -4.4442,0 -9.1418,3.1967 -9.746,7.93327 -0.6433,5.1459 2.261,9.04431 6.9586,9.04431 l 10.8571,0 -12.4749,107.14781 36.8595,0 c 0,0 11.6172,-107.14781 11.9096,-107.14781 0,0 18.9853,0 24.3066,0 18.381,0 36.723,16.04196 33.4873,45.65039 -3.3526,28.10754 -5.8086,43.44778 -33.078,44.83172 l -6.1205,0.56527 c -2.7873,0 -8.0892,2.78736 -8.635,8.3426 -0.5457,5.57472 4.1908,7.77733 6.0231,7.77733 3.5475,0 7.2315,0.0195 7.2315,0.0195 51.7514,0 66.8578,-24.52101 71.0291,-59.87959" /><path
     inkscape:connector-curvature="0"
     id="path4293"
     style="fill:#4d555a;fill-opacity:1;fill-rule:nonzero;stroke:none"
     d="m 1153.0483,-425.4858 c 0,0 -10.6232,98.1035 -10.8961,99.85779 -0.7797,4.81453 -4.5027,7.29002 -8.7714,7.29002 l -27.3279,0 12.4749,-107.14781 -12.5139,0 c -4.1907,0 -7.251,-4.1713 -6.6857,-8.63498 0.5457,-4.44419 5.0094,-8.3426 9.4536,-8.3426 l 58.7296,0 c 4.1908,0 7.251,3.33314 6.6857,7.52393 -0.5652,4.44419 -5.2823,9.45365 -9.746,9.45365 l -11.4028,0" /><path
     inkscape:connector-curvature="0"
     id="path4295"
     style="fill:#4d555a;fill-opacity:1;fill-rule:nonzero;stroke:none"
     d="m 1087.399,-402.9335 c -2.2026,21.57771 -5.8671,57.98886 -8.7324,76.23342 -0.9161,5.92559 -4.873,8.36209 -9.4342,8.36209 -2.7873,0 -27.4643,0 -27.4643,0 4.99,-40.40702 6.3739,-53.13533 8.4011,-74.03081 2.3196,-23.72183 -6.6468,-33.66278 -27.5228,-33.66278 -12.241,-0.29238 -31.16776,0 -31.16776,0 -3.89841,0 -6.97816,-3.35263 -6.45187,-7.52393 0.52629,-4.73657 4.95098,-8.90787 9.39517,-8.90787 l 46.48856,0 c 41.752,0 48.8276,16.70469 46.4885,39.52988" /><path
     inkscape:connector-curvature="0"
     id="path4297"
     style="fill:#4d555a;fill-opacity:1;fill-rule:nonzero;stroke:none"
     d="m 973.15611,-403.20639 c -2.37803,21.8506 -6.97815,58.92448 -9.3172,77.2665 -0.56527,5.53575 -3.15771,7.6019 -7.73835,7.6019 l -29.4135,0 c 1.65682,-13.35205 6.66628,-54.53876 9.45364,-74.3037 3.33314,-24.7744 -8.3426,-32.84411 -28.38043,-32.84411 l -21.81161,0 -11.59777,107.14781 -35.35858,0 12.27999,-107.14781 -9.49263,0 c -4.1713,0 -7.23155,-4.1713 -6.68577,-8.3426 0.56527,-4.73657 5.02895,-8.63498 9.47314,-8.63498 l 82.3929,0 c 41.75198,0 48.71064,16.4318 46.19617,39.25699" /><path
     inkscape:connector-curvature="0"
     id="path4299"
     style="fill:#4d555a;fill-opacity:1;fill-rule:nonzero;stroke:none"
     d="m 821.02064,-434.12078 c -0.79918,6.82222 -5.12641,50.79629 -5.94508,56.95578 -0.68222,5.00945 -5.16539,6.74425 -9.39517,6.74425 l -23.95573,0 6.17898,-55.06505 -18.92679,0 c -4.19079,0 -7.52393,-3.62552 -6.95866,-8.06971 0.54578,-4.73657 5.28235,-8.90787 10.01892,-8.90787 l 39.7248,0 c 6.35441,0 9.84349,3.45009 9.25873,8.3426" /></g></svg>